<svg  xmlns="http://www.w3.org/2000/svg" xmlns:xlink="http://www.w3.org/1999/xlink"  viewBox="138.212 46.606 58.558 35.135" >
  <path d="M 152.851 58.318 C 154.804 50.51 159.683 46.606 167.491 46.606 C 179.203 46.606 180.667 55.389 186.523 56.854 C 190.427 57.829 193.842 56.365 196.77 52.462 C 194.818 60.269 189.938 64.173 182.131 64.173 C 170.419 64.173 168.955 55.389 163.099 53.925 C 159.195 52.949 155.779 54.414 152.851 58.318 Z M 138.212 75.885 C 140.164 68.077 145.044 64.173 152.851 64.173 C 164.563 64.173 166.027 72.957 171.883 74.421 C 175.787 75.397 179.203 73.933 182.131 70.029 C 180.178 77.837 175.299 81.741 167.491 81.741 C 155.779 81.741 154.315 72.957 148.46 71.493 C 144.555 70.517 141.14 71.981 138.212 75.885 Z" fill="#44a8b3" style=""></path>
</svg>